<svg width="96" height="29" viewBox="0 0 96 29" fill="none" xmlns="http://www.w3.org/2000/svg">
<g id="xbox">
<g id="Group">
<path id="Shape" fill-rule="evenodd" clip-rule="evenodd" d="M62.2751 14.0157C65.1396 12.2268 64.4743 8.42859 62.6057 6.94661C60.9834 5.66027 59.6747 5.66701 54.5198 5.69354C53.6911 5.69781 52.7631 5.70259 51.7183 5.70259C51.397 5.70259 51.1358 5.96136 51.1358 6.28017V13.1969C50.7429 13.1969 50.4175 13.1946 50.1467 13.1928C48.9149 13.1843 48.8138 13.1836 48.6298 13.4363C48.5297 13.5737 48.4392 13.6944 48.3588 13.8017L48.3588 13.8018C47.9334 14.3693 47.7878 14.5637 47.9582 14.8948C48.1302 15.2277 48.2554 15.2268 49.8418 15.2153C50.1976 15.2127 50.627 15.2096 51.1468 15.2096V22.7672C51.1468 23.086 51.4075 23.3446 51.729 23.3448C58.0322 23.3502 58.9804 23.347 60.1414 23.1753C62.9029 22.7683 64.6301 21.001 64.7614 18.4477C64.8989 15.7993 63.319 14.7262 62.469 14.149C62.399 14.1014 62.3339 14.0572 62.2751 14.0157ZM55.7128 13.1989H55.7128C55.052 13.1962 54.2782 13.1931 53.3655 13.1926V7.78036C53.5562 7.74969 57.4148 7.75564 58.7153 7.78594C59.2305 7.79802 59.8003 7.90268 60.3626 8.08821C61.3907 8.42859 61.9547 9.18519 61.9933 10.2762C62.035 11.4719 61.554 12.3053 60.5636 12.7531C59.5431 13.2144 59.204 13.213 55.7128 13.1989ZM53.3631 15.2029V21.2841C53.3925 21.2876 53.412 21.2903 53.4315 21.2924C53.5246 21.3022 53.6192 21.2977 54.8123 21.3005C55.2417 21.3016 55.6356 21.3035 55.9983 21.3053C58.8341 21.3194 59.7629 21.324 60.8567 20.835C62.0276 20.3102 62.6321 19.2872 62.5586 17.9555C62.4001 15.0766 59.3431 15.1226 55.2676 15.184C54.6537 15.1933 54.0168 15.2029 53.3631 15.2029Z" fill="#8DD83D"/>
<path id="Shape_2" fill-rule="evenodd" clip-rule="evenodd" d="M66.5438 9.68135C69.9154 3.25302 80.0803 3.90496 82.0391 11.5641C83.4857 17.2169 80.8491 23.3452 74.3816 23.7086C66.4864 24.1555 63.5415 15.4053 66.5438 9.68135ZM69.0827 9.79419C66.2391 13.5811 67.5077 21.6355 73.9431 21.6355C78.6514 21.6355 80.9524 17.0392 79.9502 12.4605C78.6769 6.64379 71.9841 5.9318 69.0827 9.79419Z" fill="#8DD83D"/>
<path id="Shape_3" d="M89.7375 14.1128C95.7267 6.05579 95.566 6.47369 95.3436 6.03683C95.1375 5.63232 94.7982 5.71969 93.6557 5.71969C93.2502 5.71969 93.5804 5.42504 88.413 12.3763C83.2628 5.45516 83.5836 5.73345 83.176 5.73345C82.0289 5.73345 81.6925 5.64756 81.4872 6.05059C81.388 6.24522 81.4077 6.47853 81.5382 6.65401L87.087 14.1135C80.4514 23.0769 80.6732 22.575 80.8958 23.0115C81.1017 23.4145 81.4386 23.3281 82.5874 23.3281C82.7725 23.3281 82.9467 23.2409 83.0564 23.0933L88.4123 15.892L93.763 23.0803C93.987 23.3809 94.2075 23.3149 95.4017 23.3149C95.6211 23.3149 95.8223 23.1924 95.9215 22.9983C96.1457 22.5588 96.3394 23.0279 89.7375 14.1128Z" fill="#8DD83D"/>
<path id="Shape_4" d="M43.6894 14.1128C49.6592 6.08758 49.5214 6.47685 49.2982 6.03832C49.1991 5.84369 48.9979 5.72099 48.7781 5.72099C47.5684 5.72099 47.3619 5.66002 47.1418 5.95578L42.3632 12.3778C37.218 5.45293 37.5369 5.72992 37.1295 5.72992C35.9745 5.72992 35.6509 5.64775 35.4471 6.04706C35.3481 6.24151 35.3677 6.47481 35.4981 6.6503L41.0449 14.113C34.4055 23.0738 34.6279 22.5713 34.8506 23.0082C35.0565 23.4108 35.3906 23.3249 36.5449 23.3249C36.951 23.3249 36.5563 23.7027 42.3666 15.8929C48.1821 23.7066 47.787 23.3249 48.1922 23.3249C48.2214 23.3249 49.3792 23.3249 49.3687 23.3249C49.8771 23.3249 50.1366 22.726 49.8 22.359L43.6894 14.1128Z" fill="#8DD83D"/>
<path id="Shape_5" d="M8.78532 2.25921C10.3127 2.44455 12.195 3.12308 14.3801 4.27601C14.5181 4.34888 14.6873 4.35093 14.8296 4.27471C16.9839 3.12159 18.8543 2.43953 20.3888 2.24731C20.8599 2.1882 20.9616 1.55076 20.5294 1.35166C16.8276 -0.352648 12.5777 -0.464186 8.64132 1.36412C8.44932 1.45335 8.34001 1.65783 8.37339 1.86548C8.40676 2.07313 8.57476 2.23374 8.78532 2.25921Z" fill="#8DD83D"/>
<path id="Shape_6" d="M24.5419 23.8049C24.5168 23.6231 23.823 19.2709 14.8607 11.9246C14.6871 11.7824 14.4366 11.7801 14.2607 11.9196C6.36677 18.1687 3.55408 24.1462 4.84389 25.2475C7.89246 27.8545 10.8092 28.9669 14.5969 28.9669C18.7131 28.9669 21.3221 27.5976 24.1982 25.3878C24.7532 24.961 24.5516 23.859 24.5456 23.8281L24.5419 23.8049Z" fill="#8DD83D"/>
<path id="Shape_7" d="M24.6189 4.19905C23.0126 3.94344 19.9815 6.64583 18.8068 7.7772C18.6311 7.94637 18.6138 8.22038 18.7667 8.41C24.5439 15.5717 26.0053 19.6611 26.214 21.8303C26.2335 22.0322 26.381 22.1993 26.5802 22.245C26.7813 22.2911 26.987 22.2034 27.093 22.0322C28.4829 19.7851 29.2175 17.1845 29.2175 14.5117C29.2179 8.61467 25.1492 4.28326 24.6189 4.19905Z" fill="#8DD83D"/>
<path id="Shape_8" d="M10.4025 7.77739C7.03653 4.53478 5.35503 4.18474 4.78822 4.18474C4.71772 4.18474 4.65153 4.18957 4.59134 4.19924C4.49309 4.21485 4.40253 4.26058 4.33184 4.32992C-0.369158 8.94948 -1.45385 16.261 2.11709 22.0328C2.20484 22.1746 2.35953 22.2579 2.52247 22.2579C2.7679 22.2579 2.97284 22.0729 2.99609 21.8311C3.20459 19.6616 4.66597 15.5723 10.4427 8.41037C10.5957 8.22039 10.5784 7.94656 10.4025 7.77739Z" fill="#8DD83D"/>
</g>
<g id="Group_2">
<path id="Shape_9" d="M5.68034 21.4277C4.88994 22.8451 4.70867 23.667 4.70332 23.6934C4.63207 24.1202 4.59177 24.9603 4.93463 25.2477C8.04029 27.8547 11.0117 28.9671 14.8703 28.9671C15.5772 28.9671 16.2372 28.9249 16.8654 28.8498C12.0317 28.2603 7.9188 25.4153 5.68034 21.4277Z" fill="#79C422"/>
<path id="Shape_10" d="M3.86908 14.5039C3.86908 10.9495 5.18878 7.69671 7.37433 5.17854C6.02102 4.31858 5.23348 4.18455 4.878 4.18455C4.80618 4.18455 4.73876 4.18938 4.67744 4.19905C4.57735 4.21467 4.48509 4.2604 4.41308 4.32974C-0.375952 8.94929 -1.48095 16.2608 2.15686 22.0326C2.24625 22.1744 2.40384 22.2577 2.56982 22.2577C2.81986 22.2577 3.02863 22.0727 3.05232 21.8309C3.14362 20.8991 3.47159 19.6122 4.28071 17.8811C4.01406 16.7971 3.86908 15.6674 3.86908 14.5039Z" fill="#79C422"/>
<path id="Shape_11" d="M10.3773 2.54122C12.2506 1.29998 14.4313 0.467904 16.7844 0.168238C13.8174 -0.218429 11.2244 0.260071 8.80319 1.36393C8.6076 1.45316 8.49624 1.65765 8.53024 1.8653C8.61122 2.36015 8.99764 2.17519 10.3773 2.54122Z" fill="#79C422"/>
</g>
</g>
</svg>
